<svg width="22" height="19" viewBox="0 0 22 19" fill="none" xmlns="http://www.w3.org/2000/svg">
<path d="M20.6898 7.52923L2.93964 0.163947C2.19186 -0.146374 1.34705 -0.00986191 0.734956 0.52003C0.122866 1.05001 -0.133142 1.86659 0.0669206 2.65107L1.64684 8.84683H9.38234C9.73829 8.84683 10.0269 9.13541 10.0269 9.4914C10.0269 9.84736 9.73834 10.136 9.38234 10.136H1.64684L0.0669206 16.3317C-0.133142 17.1162 0.122823 17.9328 0.734956 18.4627C1.34829 18.9937 2.19319 19.1285 2.93969 18.8188L20.6898 11.4536C21.498 11.1182 22 10.3664 22 9.4914C22 8.61643 21.498 7.86452 20.6898 7.52923Z" fill="#00476F"/>
</svg>
