<svg width="18" height="17" viewBox="0 0 18 17" fill="none" xmlns="http://www.w3.org/2000/svg">
<path d="M13.9 2.69998V1.29998C13.9 1.11432 13.8263 0.936276 13.695 0.805001C13.5637 0.673725 13.3857 0.599976 13.2 0.599976C13.0143 0.599976 12.8363 0.673725 12.705 0.805001C12.5737 0.936276 12.5 1.11432 12.5 1.29998V2.69998H13.9Z" fill="#00476F"/>
<path d="M5.49961 2.69998V1.29998C5.49961 1.11432 5.42586 0.936276 5.29458 0.805001C5.16331 0.673725 4.98526 0.599976 4.79961 0.599976C4.61396 0.599976 4.43591 0.673725 4.30463 0.805001C4.17336 0.936276 4.09961 1.11432 4.09961 1.29998V2.69998H5.49961Z" fill="#00476F"/>
<path d="M15.2996 16.6998H2.69961C2.14265 16.6998 1.60851 16.4785 1.21469 16.0847C0.820859 15.6909 0.599609 15.1567 0.599609 14.5998L0.599609 5.49978C0.599609 4.94283 0.820859 4.40868 1.21469 4.01486C1.60851 3.62103 2.14265 3.39978 2.69961 3.39978H15.2996C15.8566 3.39978 16.3907 3.62103 16.7845 4.01486C17.1784 4.40868 17.3996 4.94283 17.3996 5.49978V14.5998C17.3996 15.1567 17.1784 15.6909 16.7845 16.0847C16.3907 16.4785 15.8566 16.6998 15.2996 16.6998ZM15.9996 6.89978H1.99961V14.5998C1.99961 14.7854 2.07336 14.9635 2.20463 15.0948C2.33591 15.226 2.51396 15.2998 2.69961 15.2998H15.2996C15.4853 15.2998 15.6633 15.226 15.7946 15.0948C15.9259 14.9635 15.9996 14.7854 15.9996 14.5998V6.89978Z" fill="#00476F"/>
</svg>
